<svg xmlns="http://www.w3.org/2000/svg" width="16" height="19" viewBox="0 0 16 19"><path fill="#cecece" d="M8 2.25a6.75 6.75 0 1 1 0 13.5 6.75 6.75 0 0 1 0-13.5z"/><path fill="#cecece" d="M2.94 17.87a1 1 0 0 1-.41-1.43l2.25-3.55c.31-.5.99-.67 1.53-.38a1 1 0 0 1 .41 1.43l-2.25 3.55c-.31.5-.99.67-1.53.38zM13.06 17.87c.54-.29.73-.93.41-1.43l-2.25-3.55c-.31-.5-.99-.67-1.53-.38a1 1 0 0 0-.41 1.43l2.25 3.55c.31.5.99.67 1.53.38z"/><path fill="#fff" d="M7.41 6h.18a.4.4 0 0 1 .41.4v3.2a.4.4 0 0 1-.41.4h-.18A.4.4 0 0 1 7 9.6V6.4c0-.22.18-.4.41-.4z"/><path fill="#fff" d="M7.41 9h3.18a.4.4 0 0 1 .41.4v.2a.4.4 0 0 1-.41.4H7.41A.4.4 0 0 1 7 9.6v-.2c0-.22.18-.4.41-.4z"/><path fill="#cecece" d="M3.38 0a3.37 3.37 0 1 1 0 6.75 3.37 3.37 0 0 1 0-6.75zM12.63 0a3.37 3.37 0 1 1 0 6.75 3.37 3.37 0 0 1 0-6.75z"/></svg>