<svg xmlns="http://www.w3.org/2000/svg" width="24" height="24" viewBox="0 0 24 24"><defs><clipPath id="a"><path fill="#fff" d="M1168 115h18a3 3 0 0 1 3 3v14a3 3 0 0 1-3 3h-18a3 3 0 0 1-3-3v-14a3 3 0 0 1 3-3z"/></clipPath><clipPath id="b"><path fill="#fff" d="M1189 132a3 3 0 0 1-3 3h-18a3 3 0 0 1-3-3v-10.17a3 3 0 0 0 1 .17h21c.77 0 1.47-.29 2-.76z"/></clipPath></defs><path fill="#fff" d="M3 4h18a3 3 0 0 1 3 3v14a3 3 0 0 1-3 3H3a3 3 0 0 1-3-3V7a3 3 0 0 1 3-3z"/><path fill="none" stroke="#999" stroke-linecap="round" stroke-linejoin="round" stroke-miterlimit="50" stroke-width="4" d="M1168 115h18a3 3 0 0 1 3 3v14a3 3 0 0 1-3 3h-18a3 3 0 0 1-3-3v-14a3 3 0 0 1 3-3z" clip-path="url(&quot;#a&quot;)" transform="translate(-1165 -111)"/><path fill="#fff" d="M24 21a3 3 0 0 1-3 3H3a3 3 0 0 1-3-3V10.83A3 3 0 0 0 1 11h21c.77 0 1.47-.29 2-.76z"/><path fill="none" stroke="#999" stroke-linecap="round" stroke-linejoin="round" stroke-miterlimit="50" stroke-width="4" d="M1189 132a3 3 0 0 1-3 3h-18a3 3 0 0 1-3-3v-10.17a3 3 0 0 0 1 .17h21c.77 0 1.47-.29 2-.76z" clip-path="url(&quot;#b&quot;)" transform="translate(-1165 -111)"/><path fill="#999" d="M18 1v7a1 1 0 0 1-2 0V1a1 1 0 0 1 2 0zM8 1v7a1 1 0 0 1-2 0V1a1 1 0 0 1 2 0z"/></svg>