<svg xmlns="http://www.w3.org/2000/svg" width="27" height="27" viewBox="0 0 27 27"><defs><clipPath id="a"><path fill="#fff" d="M1379.5 28a13.5 13.5 0 1 1 0 27 13.5 13.5 0 0 1 0-27z"/></clipPath></defs><path fill="#fff" d="M13.5 0a13.5 13.5 0 1 1 0 27 13.5 13.5 0 0 1 0-27z"/><path fill="none" stroke="#5f606b" stroke-linecap="round" stroke-linejoin="round" stroke-miterlimit="50" stroke-width="4" d="M1379.5 28a13.5 13.5 0 1 1 0 27 13.5 13.5 0 0 1 0-27z" clip-path="url(&quot;#a&quot;)" transform="translate(-1366 -28)"/><path fill="#5f606b" d="M12 20a1 1 0 1 1 0 2 1 1 0 0 1 0-2zM9 10s-.98-3.69 3-5c2.01-.17 6.43.38 6 5a5.32 5.32 0 0 1-3.11 4.44C12.35 15.74 13 18 13 18h-2v-1s-.2-2.03 3-4c2.31-1.42 3.2-5.36 0-6-1.4-.28-3.46.46-3 3-1.36-.08-2 0-2 0z"/></svg>