<svg xmlns="http://www.w3.org/2000/svg" width="27" height="28" viewBox="0 0 27 28"><defs><clipPath id="a"><path fill="#fff" d="M1338 45c3.31 0 6 2.24 6 5s-2.69 5-6 5-6-2.24-6-5 2.69-5 6-5z"/></clipPath><clipPath id="b"><path fill="#fff" d="M1327 50h22s3.29-1.7 1-5c-1.49-2.14-1.88-2.85-4-6l-1-6s-.44-5-7-5c-5.19 0-7.11 3.25-7 5l-1 6s-4.98 5.47-5 7c-.03 2.36 1.12 3.66 2 4z"/></clipPath></defs><path fill="#fff" d="M14 18c3.31 0 6 2.24 6 5s-2.69 5-6 5-6-2.24-6-5 2.69-5 6-5z"/><path fill="none" stroke="#5f606b" stroke-linecap="round" stroke-linejoin="round" stroke-miterlimit="50" stroke-width="4" d="M1338 45c3.31 0 6 2.24 6 5s-2.69 5-6 5-6-2.24-6-5 2.69-5 6-5z" clip-path="url(&quot;#a&quot;)" transform="translate(-1324 -27)"/><path fill="#fff" d="M3 23h22s3.29-1.7 1-5c-1.49-2.14-1.88-2.85-4-6l-1-6s-.44-5-7-5C8.81 1 6.89 4.25 7 6l-1 6s-4.98 5.47-5 7c-.03 2.36 1.12 3.66 2 4z"/><path fill="none" stroke="#5f606b" stroke-linecap="round" stroke-linejoin="round" stroke-miterlimit="50" stroke-width="4" d="M1327 50h22s3.29-1.7 1-5c-1.49-2.14-1.88-2.85-4-6l-1-6s-.44-5-7-5c-5.19 0-7.11 3.25-7 5l-1 6s-4.98 5.47-5 7c-.03 2.36 1.12 3.66 2 4z" clip-path="url(&quot;#b&quot;)" transform="translate(-1324 -27)"/></svg>