<svg xmlns="http://www.w3.org/2000/svg" width="18" height="21" viewBox="0 0 18 21"><defs><clipPath id="a"><path fill="#fff" d="M863 646v-13h14v13zm11.01-2.6v-4.88l-2.6-3.52H866l-.02 8.4zm-6.51-5.4h4a.5.5 0 0 1 0 1h-4a.5.5 0 0 1 0-1zm0-2h2a.5.5 0 0 1 0 1h-2a.5.5 0 0 1 0-1z"/></clipPath><clipPath id="b"><path fill="#fff" d="M861 654v-14h18v14zm2-9v4a3 3 0 0 0 3 3h8a3 3 0 0 0 3-3v-4a3 3 0 0 0-3-3h-8a3 3 0 0 0-3 3zm10.22.22a.8.8 0 1 1-.44 1.56.8.8 0 0 1 .44-1.56z"/></clipPath></defs><path fill="#f4f4f4" d="M4.99 10.4L5 2h5.4l2.61 3.52v4.87zM6 5.5c0 .28.22.5.5.5h4a.5.5 0 0 0 0-1h-4a.5.5 0 0 0-.5.5zm0-2c0 .28.22.5.5.5h2a.5.5 0 0 0 0-1h-2a.5.5 0 0 0-.5.5z"/><path fill="none" stroke="#999" stroke-linecap="round" stroke-linejoin="round" stroke-miterlimit="50" stroke-width="4" d="M865.99 643.4l.01-8.4h5.4l2.61 3.52v4.87zm1.01-4.9c0 .28.22.5.5.5h4a.5.5 0 0 0 0-1h-4a.5.5 0 0 0-.5.5zm0-2c0 .28.22.5.5.5h2a.5.5 0 0 0 0-1h-2a.5.5 0 0 0-.5.5z" clip-path="url(&quot;#a&quot;)" transform="translate(-861 -633)"/><path fill="#f4f4f4" d="M5 9h8a3 3 0 0 1 3 3v4a3 3 0 0 1-3 3H5a3 3 0 0 1-3-3v-4a3 3 0 0 1 3-3zm6.22 3.78a.8.8 0 1 0 1.56.44.8.8 0 0 0-1.56-.44z"/><path fill="none" stroke="#999" stroke-linecap="round" stroke-linejoin="round" stroke-miterlimit="50" stroke-width="4" d="M866 642h8a3 3 0 0 1 3 3v4a3 3 0 0 1-3 3h-8a3 3 0 0 1-3-3v-4a3 3 0 0 1 3-3zm6.22 3.78a.8.8 0 1 0 1.56.44.8.8 0 0 0-1.56-.44z" clip-path="url(&quot;#b&quot;)" transform="translate(-861 -633)"/></svg>